<?xml version="1.0" encoding="UTF-8"?>
<svg xmlns="http://www.w3.org/2000/svg" viewBox="0 0 1000 1000">
  <path d="M 250.49,73.31 L 252.45,73.31 L 254.40,73.31 L 256.36,73.31 L 258.32,76.25 L 258.32,79.18 L 260.27,82.11 L 262.23,85.04 L 264.19,85.04 L 266.14,85.04 L 268.10,87.98 L 270.06,90.91 L 272.02,93.84 L 273.97,90.91 L 272.02,93.84 L 273.97,96.77 L 275.93,99.71 L 277.89,102.64 L 279.84,102.64 L 281.80,102.64 L 281.80,105.57 L 283.76,108.50 L 285.71,105.57 L 283.76,108.50 L 285.71,111.44 L 287.67,114.37 L 289.63,114.37 L 291.59,117.30 L 293.54,120.23 L 295.50,120.23 L 297.46,120.23 L 297.46,123.17 L 299.41,126.10 L 301.37,129.03 L 303.33,131.96 L 305.28,129.03 L 307.24,131.96 L 309.20,131.96 L 311.15,134.90 L 309.20,137.83 L 311.15,140.76 L 313.11,143.70 L 315.07,146.63 L 317.03,149.56 L 318.98,152.49 L 320.94,155.43 L 322.90,158.36 L 324.85,158.36 L 326.81,161.29 L 328.77,164.22 L 330.72,167.16 L 332.68,170.09 L 334.64,173.02 L 336.59,173.02 L 338.55,175.95 L 340.51,175.95 L 340.51,178.89 L 342.47,181.82 L 344.42,184.75 L 346.38,184.75 L 348.34,187.68 L 350.29,184.75 L 348.34,187.68 L 350.29,190.62 L 352.25,193.55 L 354.21,193.55 L 354.21,196.48 L 356.16,199.41 L 358.12,199.41 L 360.08,202.35 L 362.04,205.28 L 363.99,205.28 L 365.95,208.21 L 367.91,211.14 L 369.86,214.08 L 371.82,217.01 L 373.78,217.01 L 375.73,214.08 L 377.69,214.08 L 379.65,214.08 L 381.60,214.08 L 383.56,214.08 L 385.52,214.08 L 387.48,214.08 L 389.43,211.14 L 391.39,211.14 L 393.35,208.21 L 395.30,208.21 L 397.26,208.21 L 399.22,208.21 L 401.17,208.21 L 403.13,208.21 L 405.09,208.21 L 407.05,205.28 L 409.00,205.28 L 410.96,205.28 L 412.92,205.28 L 414.87,205.28 L 416.83,205.28 L 418.79,205.28 L 420.74,205.28 L 422.70,202.35 L 424.66,202.35 L 426.61,202.35 L 428.57,202.35 L 430.53,202.35 L 432.49,202.35 L 434.44,202.35 L 436.40,199.41 L 438.36,199.41 L 440.31,199.41 L 442.27,199.41 L 444.23,199.41 L 446.18,199.41 L 448.14,199.41 L 450.10,199.41 L 452.05,199.41 L 454.01,199.41 L 455.97,199.41 L 457.93,196.48 L 459.88,199.41 L 461.84,199.41 L 463.80,196.48 L 465.75,196.48 L 467.71,196.48 L 469.67,196.48 L 471.62,196.48 L 473.58,196.48 L 475.54,196.48 L 477.50,196.48 L 479.45,196.48 L 481.41,196.48 L 483.37,196.48 L 485.32,196.48 L 487.28,196.48 L 489.24,196.48 L 491.19,196.48 L 493.15,196.48 L 495.11,196.48 L 497.06,196.48 L 499.02,196.48 L 500.98,196.48 L 502.94,196.48 L 504.89,196.48 L 506.85,196.48 L 508.81,196.48 L 510.76,196.48 L 512.72,196.48 L 514.68,196.48 L 516.63,196.48 L 518.59,196.48 L 520.55,199.41 L 522.50,196.48 L 524.46,196.48 L 526.42,199.41 L 528.38,199.41 L 530.33,199.41 L 532.29,199.41 L 534.25,199.41 L 536.20,199.41 L 538.16,199.41 L 540.12,199.41 L 542.07,199.41 L 544.03,196.48 L 545.99,196.48 L 547.95,196.48 L 549.90,196.48 L 551.86,196.48 L 553.82,196.48 L 555.77,196.48 L 557.73,196.48 L 559.69,199.41 L 561.64,199.41 L 563.60,199.41 L 565.56,202.35 L 567.51,202.35 L 569.47,202.35 L 571.43,202.35 L 573.39,205.28 L 575.34,205.28 L 577.30,205.28 L 579.26,205.28 L 581.21,205.28 L 583.17,205.28 L 585.13,205.28 L 587.08,205.28 L 589.04,205.28 L 591.00,208.21 L 592.95,208.21 L 594.91,208.21 L 596.87,208.21 L 598.83,208.21 L 600.78,211.14 L 602.74,211.14 L 604.70,211.14 L 606.65,214.08 L 608.61,214.08 L 610.57,214.08 L 612.52,214.08 L 614.48,214.08 L 616.44,214.08 L 618.40,214.08 L 620.35,217.01 L 622.31,217.01 L 624.27,217.01 L 626.22,214.08 L 628.18,214.08 L 630.14,214.08 L 632.09,211.14 L 634.05,208.21 L 636.01,205.28 L 637.96,202.35 L 639.92,199.41 L 641.88,196.48 L 643.84,196.48 L 645.79,193.55 L 647.75,190.62 L 649.71,187.68 L 651.66,184.75 L 653.62,181.82 L 655.58,178.89 L 657.53,175.95 L 659.49,175.95 L 661.45,173.02 L 663.41,173.02 L 665.36,170.09 L 667.32,167.16 L 669.28,164.22 L 671.23,161.29 L 673.19,158.36 L 675.15,155.43 L 677.10,155.43 L 679.06,152.49 L 681.02,149.56 L 682.97,146.63 L 684.93,143.70 L 686.89,143.70 L 688.85,140.76 L 690.80,137.83 L 688.85,134.90 L 690.80,137.83 L 692.76,134.90 L 694.72,131.96 L 696.67,129.03 L 698.63,126.10 L 700.59,126.10 L 702.54,123.17 L 704.50,123.17 L 706.46,120.23 L 708.41,117.30 L 708.41,114.37 L 710.37,111.44 L 712.33,111.44 L 714.29,108.50 L 716.24,108.50 L 718.20,105.57 L 720.16,102.64 L 722.11,99.71 L 724.07,96.77 L 726.03,93.84 L 727.98,90.91 L 729.94,90.91 L 731.90,87.98 L 733.86,85.04 L 735.81,82.11 L 737.77,79.18 L 739.73,76.25 L 741.68,76.25 L 743.64,73.31 L 745.60,73.31 L 747.55,73.31 L 749.51,73.31 L 749.51,76.25 L 751.47,79.18 L 753.42,76.25 L 753.42,73.31 L 753.42,76.25 L 751.47,79.18 L 753.42,82.11 L 755.38,85.04 L 755.38,87.98 L 755.38,90.91 L 755.38,93.84 L 755.38,96.77 L 755.38,99.71 L 757.34,102.64 L 757.34,105.57 L 757.34,108.50 L 757.34,111.44 L 757.34,114.37 L 757.34,117.30 L 757.34,120.23 L 757.34,123.17 L 757.34,126.10 L 757.34,129.03 L 759.30,131.96 L 761.25,129.03 L 759.30,131.96 L 759.30,134.90 L 759.30,137.83 L 759.30,140.76 L 759.30,143.70 L 759.30,146.63 L 761.25,149.56 L 761.25,152.49 L 761.25,155.43 L 761.25,158.36 L 763.21,161.29 L 763.21,164.22 L 761.25,167.16 L 763.21,170.09 L 763.21,173.02 L 763.21,175.95 L 763.21,178.89 L 763.21,181.82 L 763.21,184.75 L 763.21,187.68 L 763.21,190.62 L 763.21,193.55 L 765.17,196.48 L 765.17,199.41 L 765.17,202.35 L 765.17,205.28 L 765.17,208.21 L 765.17,211.14 L 765.17,214.08 L 765.17,217.01 L 765.17,219.94 L 765.17,222.87 L 765.17,225.81 L 765.17,228.74 L 767.12,231.67 L 767.12,234.60 L 767.12,237.54 L 767.12,240.47 L 767.12,243.40 L 767.12,246.33 L 767.12,249.27 L 767.12,252.20 L 767.12,255.13 L 767.12,258.06 L 767.12,261.00 L 767.12,263.93 L 767.12,266.86 L 767.12,269.79 L 767.12,272.73 L 767.12,275.66 L 767.12,278.59 L 767.12,281.52 L 767.12,284.46 L 767.12,287.39 L 767.12,290.32 L 767.12,293.26 L 767.12,296.19 L 767.12,299.12 L 767.12,302.05 L 767.12,304.99 L 767.12,307.92 L 767.12,310.85 L 767.12,313.78 L 767.12,316.72 L 767.12,319.65 L 767.12,322.58 L 767.12,325.51 L 767.12,328.45 L 767.12,331.38 L 767.12,334.31 L 767.12,337.24 L 767.12,340.18 L 767.12,343.11 L 767.12,346.04 L 767.12,348.97 L 767.12,351.91 L 767.12,354.84 L 767.12,357.77 L 767.12,360.70 L 767.12,363.64 L 767.12,366.57 L 769.08,369.50 L 771.04,369.50 L 771.04,372.43 L 771.04,375.37 L 771.04,378.30 L 772.99,381.23 L 772.99,384.16 L 774.95,387.10 L 776.91,390.03 L 778.86,392.96 L 780.82,395.89 L 780.82,398.83 L 782.78,401.76 L 784.74,404.69 L 784.74,407.62 L 784.74,410.56 L 786.69,413.49 L 788.65,416.42 L 788.65,419.35 L 790.61,422.29 L 790.61,425.22 L 792.56,428.15 L 792.56,431.09 L 794.52,434.02 L 796.48,434.02 L 796.48,436.95 L 796.48,439.88 L 796.48,442.82 L 798.43,445.75 L 798.43,448.68 L 798.43,451.61 L 800.39,454.55 L 800.39,457.48 L 800.39,460.41 L 800.39,463.34 L 802.35,466.28 L 802.35,469.21 L 802.35,472.14 L 804.31,475.07 L 804.31,478.01 L 806.26,480.94 L 806.26,483.87 L 806.26,486.80 L 806.26,489.74 L 806.26,492.67 L 806.26,495.60 L 808.22,498.53 L 808.22,501.47 L 808.22,504.40 L 808.22,507.33 L 808.22,510.26 L 808.22,513.20 L 808.22,516.13 L 808.22,519.06 L 808.22,521.99 L 808.22,524.93 L 808.22,527.86 L 808.22,530.79 L 808.22,533.72 L 808.22,536.66 L 808.22,539.59 L 808.22,542.52 L 808.22,545.45 L 808.22,548.39 L 808.22,551.32 L 810.18,554.25 L 812.13,557.18 L 814.09,557.18 L 816.05,557.18 L 818.00,557.18 L 819.96,554.25 L 821.92,554.25 L 823.87,557.18 L 825.83,557.18 L 827.79,554.25 L 829.75,554.25 L 831.70,554.25 L 833.66,554.25 L 835.62,554.25 L 837.57,554.25 L 839.53,554.25 L 841.49,554.25 L 843.44,554.25 L 845.40,554.25 L 847.36,554.25 L 849.32,554.25 L 851.27,554.25 L 853.23,554.25 L 855.19,554.25 L 857.14,554.25 L 859.10,554.25 L 861.06,554.25 L 863.01,554.25 L 864.97,554.25 L 866.93,554.25 L 868.88,554.25 L 870.84,554.25 L 872.80,554.25 L 874.76,554.25 L 876.71,554.25 L 878.67,554.25 L 880.63,554.25 L 882.58,554.25 L 884.54,554.25 L 886.50,554.25 L 888.45,554.25 L 890.41,554.25 L 892.37,554.25 L 894.32,554.25 L 896.28,554.25 L 898.24,554.25 L 900.20,554.25 L 902.15,554.25 L 904.11,554.25 L 906.07,557.18 L 908.02,557.18 L 909.98,557.18 L 911.94,557.18 L 913.89,557.18 L 915.85,560.12 L 917.81,560.12 L 919.77,557.18 L 921.72,560.12 L 923.68,560.12 L 925.64,560.12 L 927.59,560.12 L 929.55,560.12 L 931.51,560.12 L 933.46,560.12 L 935.42,563.05 L 937.38,563.05 L 939.33,563.05 L 941.29,563.05 L 943.25,563.05 L 945.21,563.05 L 945.21,565.98 L 947.16,568.91 L 945.21,568.91 L 943.25,568.91 L 941.29,568.91 L 939.33,568.91 L 937.38,568.91 L 935.42,568.91 L 933.46,568.91 L 931.51,568.91 L 929.55,571.85 L 927.59,571.85 L 925.64,571.85 L 923.68,574.78 L 921.72,574.78 L 919.77,574.78 L 917.81,574.78 L 915.85,574.78 L 913.89,574.78 L 911.94,574.78 L 909.98,574.78 L 908.02,574.78 L 906.07,574.78 L 904.11,571.85 L 902.15,571.85 L 900.20,571.85 L 898.24,571.85 L 896.28,571.85 L 894.32,571.85 L 892.37,571.85 L 890.41,574.78 L 888.45,574.78 L 886.50,574.78 L 884.54,574.78 L 882.58,577.71 L 880.63,577.71 L 878.67,574.78 L 876.71,574.78 L 874.76,574.78 L 872.80,574.78 L 870.84,577.71 L 868.88,577.71 L 866.93,577.71 L 864.97,577.71 L 863.01,577.71 L 861.06,577.71 L 859.10,577.71 L 857.14,580.65 L 855.19,580.65 L 853.23,580.65 L 851.27,580.65 L 849.32,580.65 L 847.36,580.65 L 845.40,580.65 L 843.44,580.65 L 841.49,580.65 L 839.53,580.65 L 837.57,580.65 L 835.62,580.65 L 833.66,580.65 L 831.70,580.65 L 829.75,580.65 L 827.79,580.65 L 825.83,583.58 L 823.87,583.58 L 821.92,583.58 L 819.96,583.58 L 818.00,583.58 L 816.05,583.58 L 814.09,583.58 L 812.13,586.51 L 810.18,586.51 L 808.22,586.51 L 806.26,586.51 L 804.31,589.44 L 802.35,589.44 L 800.39,592.38 L 800.39,595.31 L 798.43,598.24 L 798.43,601.17 L 798.43,604.11 L 796.48,607.04 L 794.52,609.97 L 794.52,612.90 L 792.56,615.84 L 794.52,618.77 L 796.48,621.70 L 798.43,624.63 L 800.39,624.63 L 802.35,624.63 L 804.31,624.63 L 806.26,627.57 L 808.22,627.57 L 810.18,627.57 L 812.13,627.57 L 814.09,627.57 L 816.05,630.50 L 818.00,630.50 L 819.96,630.50 L 821.92,630.50 L 823.87,630.50 L 825.83,633.43 L 827.79,633.43 L 829.75,636.36 L 831.70,636.36 L 833.66,636.36 L 835.62,639.30 L 837.57,639.30 L 839.53,639.30 L 841.49,639.30 L 843.44,639.30 L 845.40,636.36 L 843.44,639.30 L 845.40,642.23 L 847.36,642.23 L 849.32,642.23 L 851.27,645.16 L 853.23,645.16 L 855.19,645.16 L 857.14,648.09 L 859.10,648.09 L 861.06,651.03 L 863.01,651.03 L 864.97,651.03 L 866.93,648.09 L 868.88,648.09 L 866.93,648.09 L 864.97,651.03 L 866.93,653.96 L 868.88,653.96 L 870.84,653.96 L 872.80,653.96 L 874.76,656.89 L 876.71,656.89 L 878.67,656.89 L 880.63,659.82 L 882.58,662.76 L 884.54,662.76 L 886.50,662.76 L 888.45,662.76 L 890.41,665.69 L 892.37,668.62 L 894.32,668.62 L 896.28,671.55 L 898.24,668.62 L 900.20,668.62 L 902.15,671.55 L 904.11,674.49 L 906.07,674.49 L 906.07,677.42 L 906.07,680.35 L 904.11,680.35 L 902.15,683.28 L 900.20,683.28 L 898.24,683.28 L 896.28,680.35 L 894.32,677.42 L 892.37,680.35 L 890.41,680.35 L 888.45,680.35 L 886.50,680.35 L 884.54,677.42 L 882.58,674.49 L 880.63,674.49 L 878.67,674.49 L 876.71,674.49 L 874.76,674.49 L 872.80,671.55 L 870.84,671.55 L 868.88,671.55 L 866.93,671.55 L 864.97,671.55 L 863.01,668.62 L 861.06,668.62 L 859.10,668.62 L 857.14,668.62 L 855.19,668.62 L 853.23,668.62 L 851.27,665.69 L 849.32,665.69 L 847.36,665.69 L 845.40,665.69 L 843.44,665.69 L 841.49,665.69 L 839.53,662.76 L 837.57,659.82 L 835.62,659.82 L 833.66,659.82 L 831.70,659.82 L 829.75,659.82 L 827.79,659.82 L 825.83,656.89 L 823.87,656.89 L 821.92,656.89 L 819.96,656.89 L 818.00,656.89 L 816.05,656.89 L 814.09,656.89 L 812.13,653.96 L 810.18,653.96 L 808.22,653.96 L 806.26,653.96 L 804.31,653.96 L 802.35,651.03 L 800.39,651.03 L 798.43,648.09 L 796.48,648.09 L 794.52,648.09 L 792.56,648.09 L 790.61,648.09 L 788.65,648.09 L 786.69,648.09 L 784.74,648.09 L 782.78,648.09 L 780.82,648.09 L 778.86,651.03 L 776.91,653.96 L 776.91,656.89 L 776.91,659.82 L 774.95,659.82 L 772.99,662.76 L 772.99,665.69 L 771.04,668.62 L 769.08,671.55 L 767.12,674.49 L 769.08,677.42 L 771.04,677.42 L 772.99,680.35 L 774.95,680.35 L 776.91,683.28 L 778.86,683.28 L 780.82,683.28 L 782.78,683.28 L 780.82,686.22 L 782.78,689.15 L 784.74,689.15 L 786.69,692.08 L 788.65,692.08 L 790.61,695.01 L 792.56,695.01 L 794.52,695.01 L 796.48,692.08 L 796.48,695.01 L 794.52,697.95 L 796.48,700.88 L 798.43,700.88 L 800.39,700.88 L 802.35,703.81 L 804.31,703.81 L 806.26,706.74 L 808.22,706.74 L 810.18,709.68 L 812.13,709.68 L 814.09,709.68 L 814.09,712.61 L 816.05,715.54 L 818.00,715.54 L 819.96,718.48 L 821.92,718.48 L 823.87,715.54 L 823.87,718.48 L 825.83,721.41 L 827.79,724.34 L 829.75,727.27 L 831.70,727.27 L 833.66,730.21 L 835.62,730.21 L 837.57,733.14 L 839.53,736.07 L 841.49,739.00 L 843.44,739.00 L 845.40,741.94 L 847.36,741.94 L 849.32,744.87 L 851.27,744.87 L 853.23,744.87 L 853.23,747.80 L 855.19,750.73 L 855.19,753.67 L 853.23,753.67 L 851.27,753.67 L 849.32,756.60 L 847.36,753.67 L 845.40,753.67 L 843.44,750.73 L 841.49,750.73 L 839.53,747.80 L 837.57,747.80 L 835.62,747.80 L 835.62,744.87 L 833.66,741.94 L 831.70,741.94 L 829.75,741.94 L 827.79,739.00 L 825.83,739.00 L 823.87,741.94 L 823.87,739.00 L 821.92,736.07 L 819.96,736.07 L 818.00,736.07 L 816.05,733.14 L 814.09,733.14 L 814.09,730.21 L 812.13,727.27 L 810.18,727.27 L 808.22,727.27 L 806.26,724.34 L 804.31,724.34 L 802.35,724.34 L 800.39,724.34 L 798.43,721.41 L 796.48,721.41 L 794.52,721.41 L 792.56,718.48 L 790.61,715.54 L 788.65,718.48 L 786.69,715.54 L 784.74,712.61 L 782.78,712.61 L 780.82,712.61 L 778.86,709.68 L 776.91,709.68 L 774.95,709.68 L 772.99,706.74 L 771.04,706.74 L 769.08,706.74 L 767.12,706.74 L 765.17,706.74 L 767.12,703.81 L 765.17,700.88 L 763.21,700.88 L 761.25,703.81 L 759.30,703.81 L 761.25,700.88 L 759.30,697.95 L 757.34,697.95 L 755.38,697.95 L 753.42,697.95 L 751.47,700.88 L 753.42,703.81 L 755.38,703.81 L 753.42,703.81 L 751.47,706.74 L 749.51,703.81 L 747.55,706.74 L 745.60,709.68 L 743.64,712.61 L 741.68,712.61 L 739.73,715.54 L 737.77,715.54 L 735.81,718.48 L 735.81,721.41 L 733.86,724.34 L 731.90,724.34 L 729.94,727.27 L 729.94,730.21 L 727.98,730.21 L 726.03,733.14 L 724.07,733.14 L 722.11,736.07 L 720.16,736.07 L 718.20,739.00 L 716.24,741.94 L 714.29,744.87 L 712.33,744.87 L 710.37,747.80 L 708.41,750.73 L 706.46,750.73 L 704.50,753.67 L 702.54,753.67 L 700.59,756.60 L 698.63,759.53 L 696.67,759.53 L 694.72,762.46 L 692.76,762.46 L 690.80,765.40 L 688.85,768.33 L 686.89,768.33 L 684.93,771.26 L 682.97,771.26 L 681.02,774.19 L 679.06,774.19 L 677.10,777.13 L 675.15,777.13 L 673.19,780.06 L 671.23,780.06 L 669.28,782.99 L 667.32,782.99 L 665.36,785.92 L 663.41,785.92 L 661.45,788.86 L 659.49,788.86 L 657.53,788.86 L 655.58,791.79 L 653.62,791.79 L 651.66,791.79 L 649.71,791.79 L 647.75,794.72 L 645.79,797.65 L 643.84,797.65 L 641.88,800.59 L 639.92,800.59 L 637.96,800.59 L 636.01,803.52 L 634.05,803.52 L 632.09,803.52 L 630.14,806.45 L 628.18,806.45 L 626.22,809.38 L 624.27,809.38 L 622.31,809.38 L 620.35,812.32 L 618.40,812.32 L 616.44,812.32 L 614.48,812.32 L 612.52,815.25 L 610.57,815.25 L 608.61,815.25 L 606.65,815.25 L 604.70,818.18 L 602.74,818.18 L 600.78,821.11 L 598.83,821.11 L 596.87,821.11 L 594.91,824.05 L 592.95,824.05 L 591.00,824.05 L 589.04,824.05 L 587.08,824.05 L 585.13,826.98 L 587.08,829.91 L 585.13,826.98 L 583.17,826.98 L 581.21,826.98 L 579.26,826.98 L 577.30,826.98 L 575.34,826.98 L 573.39,829.91 L 571.43,829.91 L 569.47,832.84 L 567.51,832.84 L 565.56,829.91 L 563.60,832.84 L 561.64,832.84 L 559.69,832.84 L 557.73,835.78 L 555.77,835.78 L 553.82,835.78 L 551.86,835.78 L 549.90,835.78 L 547.95,835.78 L 545.99,835.78 L 544.03,835.78 L 542.07,835.78 L 540.12,835.78 L 538.16,838.71 L 536.20,838.71 L 534.25,838.71 L 532.29,838.71 L 530.33,838.71 L 528.38,838.71 L 526.42,838.71 L 524.46,838.71 L 522.50,838.71 L 520.55,838.71 L 518.59,838.71 L 516.63,838.71 L 514.68,838.71 L 512.72,838.71 L 510.76,838.71 L 508.81,838.71 L 506.85,838.71 L 504.89,838.71 L 502.94,838.71 L 500.98,838.71 L 499.02,838.71 L 497.06,838.71 L 495.11,838.71 L 493.15,838.71 L 491.19,838.71 L 489.24,838.71 L 487.28,838.71 L 485.32,838.71 L 483.37,838.71 L 481.41,838.71 L 479.45,838.71 L 477.50,838.71 L 475.54,838.71 L 473.58,838.71 L 471.62,838.71 L 469.67,838.71 L 467.71,838.71 L 465.75,838.71 L 463.80,838.71 L 461.84,835.78 L 459.88,835.78 L 457.93,835.78 L 455.97,835.78 L 454.01,835.78 L 452.05,835.78 L 450.10,835.78 L 448.14,835.78 L 446.18,835.78 L 444.23,835.78 L 442.27,832.84 L 440.31,832.84 L 438.36,832.84 L 436.40,832.84 L 434.44,832.84 L 432.49,832.84 L 430.53,832.84 L 428.57,832.84 L 426.61,829.91 L 424.66,829.91 L 422.70,826.98 L 420.74,826.98 L 418.79,826.98 L 416.83,826.98 L 414.87,826.98 L 412.92,824.05 L 410.96,824.05 L 409.00,824.05 L 407.05,824.05 L 405.09,824.05 L 403.13,821.11 L 401.17,821.11 L 399.22,821.11 L 397.26,821.11 L 395.30,821.11 L 393.35,818.18 L 391.39,815.25 L 389.43,815.25 L 387.48,815.25 L 385.52,815.25 L 383.56,812.32 L 381.60,812.32 L 379.65,812.32 L 377.69,809.38 L 375.73,809.38 L 373.78,809.38 L 371.82,809.38 L 369.86,806.45 L 367.91,806.45 L 365.95,803.52 L 363.99,803.52 L 362.04,800.59 L 360.08,800.59 L 358.12,800.59 L 356.16,800.59 L 354.21,797.65 L 352.25,797.65 L 350.29,794.72 L 348.34,794.72 L 346.38,794.72 L 344.42,794.72 L 342.47,791.79 L 340.51,788.86 L 338.55,788.86 L 336.59,785.92 L 334.64,785.92 L 332.68,785.92 L 330.72,782.99 L 328.77,782.99 L 326.81,782.99 L 326.81,780.06 L 324.85,777.13 L 322.90,777.13 L 320.94,774.19 L 318.98,774.19 L 317.03,774.19 L 315.07,771.26 L 313.11,771.26 L 311.15,768.33 L 309.20,765.40 L 307.24,762.46 L 305.28,762.46 L 303.33,765.40 L 303.33,762.46 L 301.37,759.53 L 299.41,756.60 L 297.46,753.67 L 295.50,753.67 L 293.54,750.73 L 291.59,750.73 L 289.63,747.80 L 287.67,747.80 L 285.71,744.87 L 283.76,741.94 L 281.80,739.00 L 279.84,736.07 L 277.89,736.07 L 275.93,733.14 L 273.97,733.14 L 272.02,730.21 L 270.06,727.27 L 268.10,724.34 L 266.14,721.41 L 264.19,718.48 L 262.23,718.48 L 260.27,715.54 L 258.32,712.61 L 256.36,709.68 L 254.40,709.68 L 252.45,706.74 L 250.49,703.81 L 248.53,700.88 L 246.58,697.95 L 244.62,697.95 L 242.66,697.95 L 240.70,697.95 L 238.75,697.95 L 236.79,697.95 L 234.83,700.88 L 232.88,700.88 L 230.92,703.81 L 228.96,706.74 L 227.01,706.74 L 225.05,706.74 L 223.09,709.68 L 221.14,709.68 L 219.18,709.68 L 217.22,712.61 L 215.26,712.61 L 213.31,712.61 L 211.35,715.54 L 209.39,718.48 L 207.44,718.48 L 205.48,718.48 L 203.52,721.41 L 201.57,721.41 L 199.61,721.41 L 197.65,724.34 L 195.69,724.34 L 193.74,724.34 L 191.78,727.27 L 193.74,730.21 L 191.78,730.21 L 189.82,730.21 L 187.87,730.21 L 185.91,733.14 L 183.95,733.14 L 182.00,733.14 L 180.04,733.14 L 178.08,736.07 L 176.13,736.07 L 174.17,739.00 L 172.21,739.00 L 170.25,739.00 L 168.30,741.94 L 166.34,744.87 L 164.38,744.87 L 162.43,747.80 L 160.47,747.80 L 158.51,747.80 L 156.56,750.73 L 154.60,750.73 L 152.64,750.73 L 150.68,753.67 L 148.73,753.67 L 146.77,753.67 L 146.77,750.73 L 146.77,747.80 L 146.77,744.87 L 148.73,744.87 L 150.68,744.87 L 152.64,741.94 L 154.60,739.00 L 156.56,736.07 L 158.51,736.07 L 160.47,733.14 L 162.43,730.21 L 164.38,730.21 L 166.34,730.21 L 168.30,727.27 L 170.25,724.34 L 172.21,721.41 L 174.17,721.41 L 176.13,718.48 L 178.08,718.48 L 180.04,715.54 L 182.00,715.54 L 183.95,715.54 L 185.91,712.61 L 187.87,709.68 L 189.82,706.74 L 191.78,706.74 L 193.74,703.81 L 195.69,703.81 L 197.65,700.88 L 199.61,700.88 L 201.57,700.88 L 203.52,697.95 L 205.48,695.01 L 207.44,695.01 L 209.39,692.08 L 211.35,692.08 L 213.31,692.08 L 215.26,689.15 L 217.22,689.15 L 219.18,686.22 L 221.14,683.28 L 223.09,683.28 L 225.05,680.35 L 227.01,677.42 L 228.96,677.42 L 230.92,674.49 L 228.96,671.55 L 227.01,668.62 L 225.05,665.69 L 225.05,662.76 L 225.05,659.82 L 223.09,656.89 L 221.14,653.96 L 219.18,653.96 L 219.18,651.03 L 217.22,648.09 L 215.26,645.16 L 213.31,648.09 L 211.35,648.09 L 209.39,648.09 L 207.44,648.09 L 205.48,648.09 L 203.52,648.09 L 201.57,651.03 L 199.61,648.09 L 197.65,651.03 L 195.69,651.03 L 193.74,651.03 L 191.78,653.96 L 189.82,653.96 L 187.87,653.96 L 185.91,653.96 L 183.95,653.96 L 182.00,656.89 L 180.04,656.89 L 178.08,656.89 L 176.13,656.89 L 174.17,656.89 L 172.21,656.89 L 170.25,659.82 L 168.30,659.82 L 166.34,659.82 L 164.38,659.82 L 162.43,659.82 L 160.47,662.76 L 158.51,665.69 L 156.56,665.69 L 154.60,665.69 L 152.64,665.69 L 150.68,665.69 L 148.73,665.69 L 146.77,665.69 L 144.81,668.62 L 142.86,668.62 L 140.90,668.62 L 138.94,668.62 L 136.99,668.62 L 135.03,668.62 L 133.07,671.55 L 131.12,671.55 L 129.16,671.55 L 127.20,671.55 L 125.24,671.55 L 123.29,671.55 L 121.33,671.55 L 119.37,671.55 L 117.42,674.49 L 115.46,674.49 L 113.50,674.49 L 111.55,677.42 L 113.50,680.35 L 113.50,683.28 L 111.55,683.28 L 113.50,680.35 L 111.55,677.42 L 109.59,677.42 L 107.63,680.35 L 105.68,680.35 L 103.72,680.35 L 101.76,680.35 L 99.80,680.35 L 97.85,680.35 L 95.89,683.28 L 95.89,680.35 L 95.89,677.42 L 95.89,674.49 L 97.85,671.55 L 97.85,668.62 L 99.80,668.62 L 101.76,668.62 L 103.72,671.55 L 105.68,668.62 L 107.63,668.62 L 109.59,668.62 L 111.55,665.69 L 113.50,662.76 L 115.46,662.76 L 117.42,659.82 L 119.37,656.89 L 121.33,656.89 L 123.29,656.89 L 125.24,653.96 L 127.20,653.96 L 129.16,653.96 L 131.12,653.96 L 133.07,651.03 L 135.03,651.03 L 136.99,648.09 L 138.94,648.09 L 140.90,645.16 L 142.86,645.16 L 144.81,645.16 L 146.77,645.16 L 148.73,642.23 L 150.68,642.23 L 152.64,642.23 L 154.60,639.30 L 156.56,639.30 L 158.51,639.30 L 160.47,639.30 L 162.43,636.36 L 164.38,633.43 L 166.34,633.43 L 168.30,633.43 L 170.25,633.43 L 172.21,633.43 L 174.17,630.50 L 176.13,630.50 L 178.08,630.50 L 180.04,630.50 L 182.00,630.50 L 183.95,627.57 L 185.91,627.57 L 187.87,627.57 L 189.82,627.57 L 191.78,624.63 L 193.74,624.63 L 195.69,624.63 L 197.65,624.63 L 199.61,621.70 L 201.57,618.77 L 203.52,615.84 L 205.48,612.90 L 203.52,609.97 L 203.52,607.04 L 201.57,604.11 L 201.57,601.17 L 199.61,598.24 L 199.61,595.31 L 197.65,592.38 L 197.65,589.44 L 195.69,586.51 L 193.74,586.51 L 191.78,586.51 L 189.82,586.51 L 187.87,586.51 L 185.91,583.58 L 183.95,583.58 L 182.00,583.58 L 180.04,583.58 L 178.08,583.58 L 176.13,580.65 L 174.17,580.65 L 172.21,580.65 L 170.25,580.65 L 168.30,580.65 L 166.34,580.65 L 164.38,580.65 L 162.43,580.65 L 160.47,580.65 L 158.51,580.65 L 156.56,580.65 L 154.60,580.65 L 152.64,580.65 L 150.68,580.65 L 148.73,580.65 L 146.77,577.71 L 144.81,577.71 L 142.86,577.71 L 140.90,577.71 L 138.94,580.65 L 138.94,583.58 L 138.94,580.65 L 136.99,577.71 L 135.03,577.71 L 133.07,574.78 L 131.12,577.71 L 129.16,577.71 L 127.20,574.78 L 125.24,577.71 L 123.29,574.78 L 121.33,577.71 L 119.37,574.78 L 117.42,574.78 L 115.46,574.78 L 113.50,574.78 L 111.55,574.78 L 109.59,574.78 L 107.63,571.85 L 105.68,571.85 L 103.72,571.85 L 101.76,574.78 L 99.80,574.78 L 97.85,571.85 L 95.89,571.85 L 93.93,574.78 L 91.98,574.78 L 90.02,574.78 L 88.06,574.78 L 86.11,574.78 L 84.15,574.78 L 82.19,574.78 L 80.23,571.85 L 78.28,571.85 L 76.32,571.85 L 74.36,568.91 L 72.41,568.91 L 70.45,568.91 L 68.49,568.91 L 66.54,568.91 L 64.58,568.91 L 62.62,568.91 L 60.67,568.91 L 58.71,568.91 L 56.75,565.98 L 58.71,563.05 L 60.67,563.05 L 62.62,563.05 L 64.58,563.05 L 66.54,563.05 L 68.49,563.05 L 70.45,563.05 L 72.41,560.12 L 74.36,560.12 L 76.32,560.12 L 78.28,557.18 L 80.23,557.18 L 82.19,560.12 L 84.15,557.18 L 86.11,557.18 L 88.06,557.18 L 90.02,554.25 L 91.98,554.25 L 93.93,554.25 L 95.89,554.25 L 97.85,554.25 L 99.80,554.25 L 101.76,554.25 L 103.72,554.25 L 105.68,554.25 L 107.63,554.25 L 109.59,554.25 L 111.55,554.25 L 113.50,554.25 L 115.46,554.25 L 117.42,554.25 L 119.37,554.25 L 121.33,554.25 L 123.29,554.25 L 125.24,554.25 L 127.20,554.25 L 129.16,554.25 L 131.12,554.25 L 133.07,554.25 L 135.03,554.25 L 136.99,554.25 L 138.94,554.25 L 140.90,554.25 L 142.86,554.25 L 144.81,554.25 L 146.77,554.25 L 148.73,554.25 L 150.68,554.25 L 152.64,554.25 L 154.60,554.25 L 156.56,554.25 L 158.51,554.25 L 160.47,554.25 L 162.43,554.25 L 164.38,554.25 L 166.34,554.25 L 168.30,554.25 L 170.25,554.25 L 172.21,554.25 L 174.17,554.25 L 176.13,554.25 L 178.08,554.25 L 180.04,554.25 L 182.00,554.25 L 183.95,554.25 L 185.91,554.25 L 187.87,557.18 L 189.82,557.18 L 191.78,554.25 L 191.78,551.32 L 191.78,548.39 L 191.78,545.45 L 191.78,542.52 L 191.78,539.59 L 191.78,536.66 L 191.78,533.72 L 191.78,530.79 L 191.78,527.86 L 191.78,524.93 L 191.78,521.99 L 191.78,519.06 L 191.78,516.13 L 191.78,513.20 L 191.78,510.26 L 191.78,507.33 L 191.78,504.40 L 191.78,501.47 L 191.78,498.53 L 191.78,495.60 L 191.78,492.67 L 191.78,489.74 L 191.78,486.80 L 193.74,483.87 L 193.74,480.94 L 193.74,478.01 L 193.74,475.07 L 195.69,472.14 L 197.65,469.21 L 197.65,466.28 L 197.65,463.34 L 197.65,460.41 L 195.69,457.48 L 195.69,454.55 L 197.65,454.55 L 199.61,451.61 L 199.61,448.68 L 201.57,445.75 L 201.57,442.82 L 203.52,439.88 L 203.52,436.95 L 205.48,434.02 L 205.48,431.09 L 205.48,428.15 L 207.44,425.22 L 207.44,422.29 L 209.39,419.35 L 209.39,416.42 L 211.35,413.49 L 211.35,410.56 L 213.31,407.62 L 215.26,404.69 L 215.26,401.76 L 217.22,398.83 L 217.22,395.89 L 219.18,392.96 L 221.14,390.03 L 223.09,387.10 L 223.09,384.16 L 225.05,381.23 L 225.05,378.30 L 225.05,375.37 L 225.05,372.43 L 227.01,369.50 L 228.96,366.57 L 230.92,363.64 L 230.92,360.70 L 230.92,357.77 L 230.92,354.84 L 230.92,351.91 L 230.92,348.97 L 230.92,346.04 L 230.92,343.11 L 230.92,340.18 L 230.92,337.24 L 230.92,334.31 L 230.92,331.38 L 230.92,328.45 L 230.92,325.51 L 230.92,322.58 L 230.92,319.65 L 230.92,316.72 L 230.92,313.78 L 230.92,310.85 L 230.92,307.92 L 230.92,304.99 L 230.92,302.05 L 230.92,299.12 L 230.92,296.19 L 230.92,293.26 L 230.92,290.32 L 230.92,287.39 L 230.92,284.46 L 230.92,281.52 L 230.92,278.59 L 230.92,275.66 L 230.92,272.73 L 230.92,269.79 L 232.88,266.86 L 232.88,263.93 L 232.88,261.00 L 232.88,258.06 L 232.88,255.13 L 232.88,252.20 L 232.88,249.27 L 232.88,246.33 L 232.88,243.40 L 232.88,240.47 L 232.88,237.54 L 232.88,234.60 L 232.88,231.67 L 232.88,228.74 L 232.88,225.81 L 234.83,222.87 L 234.83,219.94 L 234.83,217.01 L 234.83,214.08 L 234.83,211.14 L 234.83,208.21 L 234.83,205.28 L 234.83,202.35 L 234.83,199.41 L 234.83,196.48 L 234.83,193.55 L 234.83,190.62 L 234.83,187.68 L 234.83,184.75 L 236.79,181.82 L 236.79,178.89 L 236.79,175.95 L 236.79,173.02 L 236.79,170.09 L 236.79,167.16 L 236.79,164.22 L 236.79,161.29 L 236.79,158.36 L 238.75,155.43 L 238.75,152.49 L 238.75,149.56 L 238.75,146.63 L 238.75,143.70 L 240.70,140.76 L 240.70,137.83 L 240.70,134.90 L 240.70,131.96 L 240.70,129.03 L 240.70,126.10 L 240.70,123.17 L 240.70,120.23 L 240.70,117.30 L 240.70,114.37 L 240.70,111.44 L 242.66,108.50 L 242.66,105.57 L 242.66,102.64 L 242.66,99.71 L 242.66,96.77 L 242.66,93.84 L 242.66,90.91 L 242.66,87.98 L 244.62,85.04 L 244.62,82.11 L 244.62,79.18 L 246.58,76.25 L 248.53,76.25" fill="none" stroke="#B6FF3A" stroke-width="18" stroke-linecap="round" stroke-linejoin="round"/>
</svg>
